<svg id="Capa_1" enable-background="new 0 0 512.01 512.01" height="512" viewBox="0 0 512.01 512.01" width="512" xmlns="http://www.w3.org/2000/svg"><g><g><path d="m343.377 93.175 19.612-28.392c5.223-7.561 2.008-18.016-6.56-21.336l-85.587-33.165c-9.546-3.699-20.129-3.699-29.675 0l-85.587 33.165c-8.568 3.32-11.783 13.775-6.56 21.336l19.612 28.392z" fill="#3a67c1"/><path d="m176.46 43.448 85.587-33.165c1.444-.56 2.913-1.024 4.397-1.414-8.328-2.19-17.176-1.726-25.278 1.414l-85.586 33.165c-8.568 3.32-11.783 13.775-6.56 21.336l19.612 28.392h20.88l-19.612-28.393c-5.223-7.561-2.008-18.015 6.56-21.335z" fill="#30569f"/><path d="m456.355 478.733-20.091-115.34c-3.273-18.791-17.745-33.646-36.444-37.409l-104.634-21.056-39.181 30.6-39.181-30.6-104.634 21.056c-18.699 3.763-33.171 18.618-36.444 37.409l-20.091 115.34c-2.344 13.457 8.014 25.775 21.674 25.775h357.353c13.659 0 24.017-12.318 21.673-25.775z" fill="#dce6eb"/><path d="m80.135 478.733 21.83-114.064c2.231-11.658 11.294-20.807 22.931-23.149l110.348-22.206-18.42-14.386-104.635 21.056c-18.699 3.763-33.171 18.618-36.444 37.409l-20.091 115.34c-2.344 13.457 8.014 25.775 21.674 25.775h24.48c-13.66 0-24.018-12.318-21.673-25.775z" fill="#c8d2dc"/><path d="m216.824 216.146h78.362v128.502h-78.362z" fill="#e3a76f"/><path d="m216.824 287.188c12.052 5.862 25.409 9.01 39.181 9.01s27.129-3.147 39.181-9.01v-71.042h-78.362z" fill="#d6995c"/><path d="m177.928 177.512h-20.149c-10.493 0-19-8.507-19-19v-9.008c0-10.493 8.507-19 19-19h20.149z" fill="#e3a76f"/><path d="m334.081 130.504h20.149c10.493 0 19 8.507 19 19v9.008c0 10.493-8.507 19-19 19h-20.149z" fill="#e3a76f"/><path d="m305.441 248.166 19.753-23.508c11.745-13.977 18.184-31.649 18.184-49.906v-81.577h-174.746v81.577c0 18.257 6.439 35.928 18.184 49.906l19.753 23.508c12.269 14.601 30.365 23.032 49.436 23.032 19.071-.001 37.167-8.431 49.436-23.032z" fill="#f2d1a5"/><path d="m226.795 248.166-19.753-23.508c-11.745-13.977-18.184-31.649-18.184-49.906v-81.577h-20.226v81.577c0 18.257 6.439 35.928 18.184 49.906l19.753 23.508c12.269 14.601 30.365 23.032 49.436 23.032 3.412 0 6.791-.281 10.113-.808-15.245-2.418-29.249-10.236-39.323-22.224z" fill="#f2bb88"/><path d="m184.791 311.374 11.952 56.24c1.51 7.105 10.072 10.007 15.591 5.285l43.671-37.37-39.181-30.6z" fill="#f5f8f9"/><path d="m188.478 328.724 46.765-9.41-18.419-14.386-32.033 6.446z" fill="#dfe4e5"/><path d="m288.649 363.462-32.644-27.934-32.645 27.934 20.405 28.826-18.367 112.22h61.214l-18.367-112.22z" fill="#5f6c75"/><path d="m270.818 408.008-2.573-15.72h-11.04l-24.727-36.628-9.118 7.802 20.405 28.826-18.367 112.22h13.44l15.794-96.5z" fill="#4e5a61"/><path d="m327.218 311.374-11.952 56.24c-1.51 7.105-10.072 10.007-15.591 5.285l-43.671-37.37 39.181-30.6z" fill="#f5f8f9"/><path d="m370.025 440.768h-52.68c-2.761 0-5-2.239-5-5v-20c0-2.761 2.239-5 5-5h52.68c2.761 0 5 2.239 5 5v20c0 2.761-2.239 5-5 5z" fill="#7dc03a"/><path d="m194.665 440.768h-52.68c-2.761 0-5-2.239-5-5v-20c0-2.761 2.239-5 5-5h52.68c2.761 0 5 2.239 5 5v20c0 2.761-2.239 5-5 5z" fill="#7dc03a"/><path d="m168.632 93.175v7.927c0 15.412 12.494 27.906 27.906 27.906h118.933c15.412 0 27.906-12.494 27.906-27.906v-7.927z" fill="#26447e"/><path d="m186.632 101.102v-7.927h-18v7.927c0 15.412 12.494 27.906 27.906 27.906h18c-15.412 0-27.906-12.494-27.906-27.906z" fill="#20396b"/><path d="m262.099 103.395h-16.216c-5.666 0-10.26-4.594-10.26-10.26v-32.534c0-5.666 4.594-10.26 10.26-10.26h16.216c5.666 0 10.26 4.594 10.26 10.26v32.533c0 5.667-4.593 10.261-10.26 10.261z" fill="#f5de46"/><path d="m248.043 93.135v-32.533c0-5.667 4.594-10.26 10.26-10.26h-12.42c-5.666 0-10.26 4.594-10.26 10.26v32.533c0 5.666 4.594 10.26 10.26 10.26h12.42c-5.666 0-10.26-4.594-10.26-10.26z" fill="#ecc52e"/></g><g><path d="m463.744 477.446-11.839-67.965c-.71-4.08-4.583-6.81-8.676-6.102-4.081.711-6.812 4.595-6.102 8.676l11.839 67.964c.736 4.228-.426 8.537-3.188 11.821s-6.807 5.168-11.098 5.168h-38.529l-5.244-25.358c-.84-4.057-4.811-6.666-8.863-5.826-4.057.839-6.665 4.807-5.826 8.863l4.616 22.321h-87.852l-16.84-102.897 13.877-19.605 4.78 4.09c3.159 2.704 7.057 4.119 11.047 4.119 1.847 0 3.713-.303 5.535-.92 5.761-1.953 9.956-6.671 11.22-12.622l10.41-48.982 65.329 13.146c15.786 3.177 27.771 15.479 30.535 31.342l2.707 15.545c.71 4.081 4.586 6.817 8.676 6.102 4.08-.71 6.812-4.595 6.102-8.675l-2.707-15.545c-3.833-22.003-20.458-39.068-42.354-43.474l-98.614-19.845v-37.248c3.039-2.588 5.885-5.44 8.497-8.549l19.753-23.507c10.645-12.668 17.316-28.17 19.304-44.471h3.991c14.612 0 26.5-11.888 26.5-26.5v-9.008c0-14.612-11.888-26.5-26.5-26.5h-3.353v-21.902-5.588l18.282-26.468c3.803-5.505 4.855-12.33 2.89-18.725s-6.672-11.449-12.91-13.866l-85.586-33.166c-11.316-4.386-23.779-4.386-35.096 0l-85.586 33.165c-6.238 2.417-10.944 7.471-12.911 13.866-1.966 6.395-.913 13.22 2.89 18.725l18.283 26.468v5.588 21.902h-3.354c-14.612 0-26.5 11.888-26.5 26.5v9.008c0 14.612 11.888 26.5 26.5 26.5h3.992c1.987 16.301 8.658 31.803 19.303 44.471l19.753 23.508c2.612 3.109 5.458 5.961 8.497 8.549v37.248l-98.614 19.845c-21.896 4.406-38.521 21.47-42.354 43.474l-20.09 115.34c-1.498 8.601.865 17.366 6.484 24.048s13.848 10.514 22.578 10.514h44.616c.01 0 .019.001.029.001.011 0 .022-.001.034-.001h103.389c.004 0 .008.001.012.001.007 0 .014-.001.022-.001h61.152c.007 0 .014.001.022.001.004 0 .008-.001.012-.001h103.389c.011 0 .022.001.034.001.01 0 .019-.001.029-.001h44.616c8.73 0 16.96-3.832 22.578-10.514 5.617-6.682 7.98-15.447 6.482-24.048zm-199.379-92.658h-16.721l-14.21-20.075 22.57-19.314 22.57 19.314zm-20.205-48.995-36.702 31.406c-.741.635-1.505.563-2.016.389-.51-.173-1.16-.579-1.363-1.534l-10.376-48.823 21.222-4.271zm63.771 30.262c-.203.954-.854 1.361-1.363 1.534-.512.172-1.274.245-2.015-.389l-36.703-31.406 29.235-22.833 21.222 4.271zm46.299-228.051c6.341 0 11.5 5.159 11.5 11.5v9.008c0 6.341-5.159 11.5-11.5 11.5h-3.353v-32.008zm-199.932-83.275c.607-1.978 2.063-3.541 3.993-4.289l85.586-33.165c7.82-3.03 16.436-3.03 24.256 0l85.587 33.165c1.93.748 3.385 2.311 3.992 4.288.608 1.978.282 4.089-.894 5.792l-17.375 25.155h-39.638c-4.143 0-7.5 3.358-7.5 7.5s3.357 7.5 7.5 7.5h36.073v.427c0 11.252-9.154 20.406-20.407 20.406h-118.932c-11.252 0-20.406-9.154-20.406-20.406v-.427h32.952c4.143 0 7.5-3.358 7.5-7.5s-3.357-7.5-7.5-7.5h-36.517l-17.377-25.155c-1.175-1.702-1.502-3.813-.893-5.791zm-8.019 103.783v-9.008c0-6.341 5.159-11.5 11.5-11.5h3.354v32.008h-3.354c-6.341 0-11.5-5.159-11.5-11.5zm46.279 61.321c-10.593-12.605-16.426-28.615-16.426-45.081v-44.743c5.772 4.087 12.811 6.499 20.406 6.499h118.932c7.596 0 14.634-2.412 20.407-6.5v44.744c0 16.465-5.834 32.475-16.427 45.081l-19.753 23.508c-10.87 12.937-26.796 20.356-43.693 20.356s-32.823-7.419-43.693-20.356zm63.447 58.864c11.143 0 21.941-2.577 31.681-7.345v29.917l-31.681 24.743-31.681-24.743v-29.917c9.74 4.768 20.537 7.345 31.681 7.345zm-189.775 213.143c-2.762-3.285-3.924-7.593-3.188-11.82l20.091-115.34c2.764-15.863 14.749-28.166 30.535-31.343l65.329-13.146 10.41 48.982c1.264 5.951 5.458 10.669 11.22 12.622 1.822.618 3.688.921 5.535.921 3.99 0 7.888-1.415 11.048-4.119l4.78-4.09 13.877 19.604-6.418 39.216c-.669 4.088 2.103 7.944 6.19 8.613 4.092.669 7.943-2.103 8.612-6.19l5.886-35.961h11.736l15.911 97.22h-43.559l5.132-31.355c.669-4.088-2.103-7.944-6.19-8.613-4.089-.673-7.943 2.102-8.612 6.19l-5.528 33.778h-87.852l4.616-22.321c.839-4.056-1.77-8.024-5.826-8.863-4.057-.84-8.025 1.769-8.863 5.826l-5.244 25.358h-38.53c-4.291-.001-8.336-1.885-11.098-5.169z"/><path d="m317.345 403.268c-6.893 0-12.5 5.607-12.5 12.5v20c0 6.893 5.607 12.5 12.5 12.5h52.681c6.893 0 12.5-5.607 12.5-12.5v-20c0-6.893-5.607-12.5-12.5-12.5zm50.18 30h-47.681v-15h47.681z"/><path d="m141.985 448.268h52.68c6.893 0 12.5-5.607 12.5-12.5v-20c0-6.893-5.607-12.5-12.5-12.5h-52.68c-6.893 0-12.5 5.607-12.5 12.5v20c0 6.892 5.608 12.5 12.5 12.5zm2.5-30h47.68v15h-47.68z"/><path d="m215.281 161.508h6.659c4.143 0 7.5-3.358 7.5-7.5s-3.357-7.5-7.5-7.5h-6.659c-4.143 0-7.5 3.358-7.5 7.5s3.358 7.5 7.5 7.5z"/><path d="m290.069 161.508h6.659c4.143 0 7.5-3.358 7.5-7.5s-3.357-7.5-7.5-7.5h-6.659c-4.143 0-7.5 3.358-7.5 7.5s3.358 7.5 7.5 7.5z"/><path d="m225.593 223.672c3.395 0 6.795-1.103 9.671-3.318l4.331-3.337c1.835-1.414 4.122-2.193 6.439-2.193h19.941c2.317 0 4.604.779 6.44 2.194l4.33 3.336c5.921 4.561 14.065 4.406 19.81-.379l4.845-4.037c3.182-2.652 3.611-7.381.96-10.563s-7.381-3.613-10.563-.96l-4.844 4.037c-.307.254-.74.263-1.053.021l-4.329-3.335c-4.444-3.426-9.983-5.312-15.596-5.312h-19.941c-5.612 0-11.151 1.886-15.595 5.311l-4.33 3.336c-.313.244-.746.234-1.052-.021l-4.846-4.037c-3.183-2.651-7.912-2.22-10.563.961-2.65 3.183-2.221 7.912.962 10.563l4.845 4.037c2.953 2.459 6.542 3.696 10.138 3.696z"/><path d="m264.589 229.12c-5.535 2.147-11.633 2.147-17.168 0-3.861-1.5-8.207.417-9.705 4.28-1.498 3.862.418 8.207 4.279 9.705 4.518 1.752 9.264 2.628 14.01 2.628s9.492-.876 14.01-2.628c3.861-1.498 5.777-5.843 4.279-9.705-1.497-3.861-5.841-5.778-9.705-4.28z"/><path d="m245.883 110.895h16.217c9.793 0 17.76-7.967 17.76-17.76v-32.534c0-9.793-7.967-17.76-17.76-17.76h-16.217c-9.793 0-17.76 7.967-17.76 17.76v32.533c0 9.793 7.967 17.761 17.76 17.761zm-2.76-50.294c0-1.522 1.238-2.76 2.76-2.76h16.217c1.521 0 2.76 1.238 2.76 2.76v32.533c0 1.522-1.238 2.76-2.76 2.76h-16.217c-1.521 0-2.76-1.238-2.76-2.76z"/></g></g></svg>